# xmcd
#
# Track frame offsets: 
#        183
#        15780
#        30468
#        44963
#        59243
#        73625
#        87405
#        102003
#        115830
#        132693
#        148315
#        164345
#        177980
#        193040
#        206735
#        220275
#        233135
#        261883
#        274665
#        287495
#        300893
#        316115
#
# Disc length: 4423 seconds
#
# Revision: 0
# Processed by: cddbd v1.5PL3 Copyright (c) Steve Scherf et al.
# Submitted via: ExactAudioCopy v0.95a4
#
DISCID=4b114516
DTITLE=Bessie Smith - L'Art Vocal (Vol. 3)
DYEAR=1990
DGENRE=Blues
TTITLE0=Down Hearted Blues
TTITLE1=Jailhouse Blues
TTITLE2=My Sweetie Went Away (He Didn't Say Where, When Or Why)
TTITLE3=Weeping Willow Blues
TTITLE4=St. Louis Blues
TTITLE5=Reckless Blues
TTITLE6=Cold In Hand Blues
TTITLE7=The Yellow Dog Blues
TTITLE8=Nashville Woman's Blues
TTITLE9=Careless Love Blues
TTITLE10=Them Has Been Blues
TTITLE11=Baby Doll
TTITLE12=Back Water Blues
TTITLE13=Alexander's Ragtime Band
TTITLE14=Dyin' By The Hour
TTITLE15=I Used To Be Your Sweet Mama 
TTITLE16=Empy Bed Blues (Parts 1 and 2)
TTITLE17=I'm Wild About That Thing
TTITLE18=Worn Out Papa Blues
TTITLE19=On Revival Day (A Rhythmic Spiritual)
TTITLE20=Shipwreck Blues
TTITLE21=Gimme A Pigfoot
EXTD=
EXTT0=
EXTT1=
EXTT2=
EXTT3=
EXTT4=
EXTT5=
EXTT6=
EXTT7=
EXTT8=
EXTT9=
EXTT10=
EXTT11=
EXTT12=
EXTT13=
EXTT14=
EXTT15=
EXTT16=
EXTT17=
EXTT18=
EXTT19=
EXTT20=
EXTT21=
PLAYORDER=
